<svg width="700" height="700" viewBox="0 0 700 700" fill="none" xmlns="http://www.w3.org/2000/svg">
<path d="M397 3L419 7L444 13L477 24L497 33L513 41L529 50L544 60L558 70L571 81L579 88L586 94L593 102L588 107L577 116L565 127L557 134L539 152L532 160L519 175L506 191L493 209L481 226L469 245L455 269L440 298L427 327L415 358L403 394L391 436L383 471L376 510L369 561L364 610L361 652L359 693L358 699H342L341 694L338 636L334 588L328 536L321 490L314 455L305 419L293 379L282 348L270 319L254 286L241 261L224 233L210 212L196 193L187 182L176 169L158 149L134 125L126 118L110 105L107 102L125 84L136 75L153 62L173 49L189 40L205 32L228 22L262 11L284 6L311 2L331 0H365L397 3ZM72 165L86 175L99 185L110 194L121 204L129 211L149 231L156 239L167 252L181 271L197 294L210 314L224 338L238 365L247 384L263 421L274 450L286 486L296 521L305 558L312 595L318 634L323 681L324 697L322 698L307 696L300 653L293 622L285 594L274 562L263 536L251 511L240 491L231 477L219 460L208 446L197 433L179 413L165 400L154 391L142 381L125 369L106 358L83 346L60 337L39 331L19 327L4 325L6 301L11 273L18 246L28 218L39 194L48 177L61 158L72 165ZM642 163L649 173L661 194L670 213L679 237L686 260L691 282L695 310L696 324L695 325L666 330L646 335L628 341L610 349L585 362L568 373L552 385L536 398L523 410L511 422L502 433L493 443L483 456L471 473L459 492L450 508L442 524L433 543L422 572L414 596L405 630L398 666L394 694L393 696L381 698H376L379 659L384 618L392 571L401 531L411 495L422 460L433 430L445 401L461 366L473 342L487 318L498 300L511 281L524 263L537 247L549 233L558 224L565 216L580 202L590 193L600 185L620 170L638 158L642 163ZM692 418L686 444L680 465L671 487L659 512L648 532L632 556L621 570L609 584L584 609L573 618L558 630L534 646L513 658L486 671L463 680L432 689L413 693H411L412 684L420 652L432 616L444 589L454 569L467 547L478 531L487 519L500 503L514 488L530 472L541 463L554 453L572 441L593 429L615 419L642 410L667 405L675 404H694L692 418ZM47 408L69 414L91 422L108 430L129 442L148 455L162 466L174 477L195 498L204 509L212 518L225 536L236 553L246 570L257 591L270 622L281 656L288 684L289 692L280 691L254 685L227 676L200 664L175 651L156 639L142 629L128 618L114 606L89 581L80 570L66 552L55 535L43 514L31 489L20 461L12 435L8 418L6 404H23L47 408Z" fill="#2B2826"/>
</svg>
